<?xml version="1.0" standalone="no"?>
<!DOCTYPE svg PUBLIC "-//W3C//DTD SVG 20010904//EN"
 "http://www.w3.org/TR/2001/REC-SVG-20010904/DTD/svg10.dtd">
<svg version="1.0" xmlns="http://www.w3.org/2000/svg"
 width="900.000000pt" height="900.000000pt" viewBox="0 0 900.000000 900.000000"
 preserveAspectRatio="xMidYMid meet">
<metadata>
Created by potrace 1.14, written by Peter Selinger 2001-2017
</metadata>
<g transform="translate(0.000000,900.000000) scale(0.100000,-0.100000)"
fill="#000000" stroke="none">
<path d="M4409 8996 c-2 -2 -44 -6 -94 -9 -593 -40 -1174 -247 -1555 -554
-344 -278 -591 -683 -690 -1130 -34 -155 -21 -231 52 -287 54 -41 105 -52 303
-71 33 -3 71 -7 85 -10 14 -2 61 -7 105 -10 44 -4 82 -8 85 -10 3 -1 43 -6 90
-9 47 -4 96 -8 110 -11 14 -2 52 -7 85 -10 127 -13 151 -15 185 -20 167 -22
217 -22 261 1 68 35 114 110 144 233 84 356 367 595 766 650 155 21 303 9 447
-35 227 -69 380 -216 451 -432 18 -57 26 -92 47 -217 3 -22 7 -167 9 -321 l3
-282 -112 -11 c-61 -7 -127 -14 -146 -16 -19 -3 -105 -11 -190 -20 -967 -97
-1482 -214 -1904 -434 -49 -25 -96 -50 -105 -56 -36 -21 -157 -101 -171 -112
-8 -6 -44 -35 -80 -63 -141 -111 -300 -283 -400 -434 -58 -88 -139 -237 -170
-316 -12 -30 -26 -64 -31 -75 -41 -96 -91 -302 -114 -475 -17 -122 -23 -427
-11 -515 3 -22 8 -69 11 -105 19 -185 84 -419 167 -597 51 -110 168 -294 222
-349 6 -6 27 -29 47 -51 148 -164 387 -316 630 -401 82 -29 271 -75 354 -86
241 -32 611 -23 890 23 423 70 803 282 1210 674 72 68 133 123 137 121 4 -3
51 -69 104 -147 53 -78 130 -183 170 -233 116 -145 357 -373 423 -401 66 -28
171 -14 236 31 17 11 120 99 230 196 110 96 279 243 375 325 96 83 177 152
180 155 3 3 32 27 65 55 102 84 125 120 125 193 0 78 -17 109 -186 342 -177
245 -233 368 -300 665 -8 35 -13 536 -17 1900 -2 545 -6 999 -9 1010 -3 11 -9
56 -13 100 -9 111 -49 306 -86 422 -192 600 -702 994 -1494 1157 -66 13 -158
29 -205 35 -47 6 -103 14 -125 17 -45 7 -589 16 -596 10z m886 -3839 c-2 -199
-6 -380 -8 -402 -3 -22 -8 -69 -12 -105 -33 -325 -189 -674 -392 -874 -181
-181 -382 -268 -618 -269 -194 0 -344 60 -475 192 -153 154 -231 393 -224 682
13 493 231 807 689 989 82 33 266 83 362 100 35 5 75 12 90 15 16 2 55 7 88
11 33 3 71 8 85 10 14 2 95 7 180 10 85 4 156 7 157 8 1 1 20 0 41 -2 l40 -4
-3 -361z"/>
<path d="M7940 2423 c-350 -32 -820 -224 -820 -336 0 -40 28 -50 123 -42 45 4
90 9 100 11 9 1 54 6 100 10 45 3 84 8 87 9 15 9 264 20 410 19 252 -2 381
-39 415 -121 52 -125 -31 -490 -218 -953 -30 -74 -57 -147 -60 -161 -8 -31 16
-69 44 -69 102 0 338 274 470 546 126 261 209 591 206 819 -2 130 -12 152 -85
189 -111 56 -306 85 -562 83 -96 -1 -191 -3 -210 -4z"/>
<path d="M273 2338 c-12 -6 -27 -23 -33 -38 -10 -23 -8 -36 8 -72 52 -118 467
-526 811 -798 203 -161 566 -408 751 -512 25 -14 74 -42 110 -63 100 -57 421
-214 555 -272 455 -193 967 -332 1395 -378 25 -3 54 -7 65 -10 125 -26 798
-26 990 0 17 2 75 9 130 15 874 97 1762 444 2430 950 364 275 512 474 420 565
-45 46 -100 37 -268 -41 -76 -35 -140 -64 -143 -64 -2 0 -34 -14 -71 -31 -38
-17 -147 -63 -243 -101 -543 -218 -1049 -367 -1550 -457 -106 -19 -131 -23
-207 -35 -16 -3 -66 -10 -113 -16 -47 -6 -98 -12 -115 -15 -16 -2 -70 -7 -120
-11 -49 -3 -92 -8 -96 -10 -11 -6 -328 -18 -484 -18 -167 0 -497 12 -518 19
-7 2 -46 6 -87 10 -41 3 -104 10 -140 15 -36 5 -87 12 -115 15 -406 51 -965
204 -1430 390 -481 194 -873 396 -1524 787 -328 197 -348 205 -408 176z"/>
</g>
</svg>
